<?xml version="1.0" encoding="UTF-8"?>
<svg id="Layer_2" data-name="Layer 2" xmlns="http://www.w3.org/2000/svg" viewBox="0 0 40 40">
  <defs>
    <style>
      .cls-1 {
        fill: #fff;
      }
    </style>
  </defs>
  <g id="Layer_1-2" data-name="Layer 1">
    <g>
      <path class="cls-1" d="M19.8,16.79c-1.78,0-2.92,1.4-2.92,3.18s1.14,3.18,2.92,3.18,2.94-1.35,2.94-3.18-1.19-3.18-2.94-3.18Z"/>
      <path class="cls-1" d="M39.95,35.53V4.43C39.95,1.98,37.97,0,35.52,0H4.43C1.98,0,0,1.99,0,4.43v7.14l.05,.05v23.95c0,2.45,1.98,4.43,4.43,4.43h31.09c2.45,0,4.43-1.99,4.43-4.44l-.05-.04Zm-12.62-8.93c-2.21,0-3.5-.95-4.14-2.13-.82,1.11-2.07,1.91-3.95,1.91-3.51,0-5.9-2.78-5.9-6.4s2.46-6.4,5.78-6.4c1.64,0,2.78,.66,3.56,1.6v-1.27h3.37v6.92c0,1.8,.38,2.63,1.46,2.63,1.36,0,2.36-1.19,2.36-4.17,0-5.38-4.09-9.29-9.84-9.29s-9.84,4.06-9.84,9.98,4.06,10.03,9.72,10.03c2.26,0,4.3-.56,6.1-1.83l1.91,2.58c-2.37,1.73-5.17,2.47-8.01,2.47-7.83,0-13.37-5.63-13.37-13.25S12.13,6.78,20.02,6.78s13.43,5.47,13.43,12.48c0,4.25-2.31,7.33-6.13,7.33Z"/>
    </g>
  </g>
</svg>