<?xml version="1.0" encoding="UTF-8"?>
<svg id="Layer_2" data-name="Layer 2" xmlns="http://www.w3.org/2000/svg" xmlns:xlink="http://www.w3.org/1999/xlink" viewBox="0 0 699.42 204.31">
  <defs>
    <style>
      .cls-1 {
        fill: url(#linear-gradient);
      }

      .cls-2 {
        fill: #fff;
      }

      .cls-3 {
        fill: url(#linear-gradient-8);
      }

      .cls-4 {
        fill: url(#linear-gradient-9);
      }

      .cls-5 {
        fill: url(#linear-gradient-3);
      }

      .cls-6 {
        fill: url(#linear-gradient-4);
      }

      .cls-7 {
        fill: url(#linear-gradient-2);
      }

      .cls-8 {
        fill: url(#linear-gradient-6);
      }

      .cls-9 {
        fill: url(#linear-gradient-7);
      }

      .cls-10 {
        fill: url(#linear-gradient-5);
      }
    </style>
    <linearGradient id="linear-gradient" x1="268.54" y1="76.23" x2="420.42" y2="76.23" gradientUnits="userSpaceOnUse">
      <stop offset="0" stop-color="#e6e6e6"/>
      <stop offset="1" stop-color="#fff"/>
    </linearGradient>
    <linearGradient id="linear-gradient-2" x1="-390.54" y1="-9787.53" x2="-309.33" y2="-9787.53" gradientTransform="translate(9879.08 -186.21) rotate(-90)" xlink:href="#linear-gradient"/>
    <linearGradient id="linear-gradient-3" x1="-347.74" y1="-9777.39" x2="-347.74" y2="-9700.59" gradientTransform="translate(9879.08 -186.21) rotate(-90)" gradientUnits="userSpaceOnUse">
      <stop offset="0" stop-color="#e6e6e6"/>
      <stop offset="1" stop-color="#fff"/>
    </linearGradient>
    <linearGradient id="linear-gradient-4" x1="2870.33" y1="-10937.2" x2="2870.33" y2="-10855.99" gradientTransform="translate(-2829.73 10988.46)" gradientUnits="userSpaceOnUse">
      <stop offset="0" stop-color="#fff"/>
      <stop offset="1" stop-color="#e6e6e6"/>
    </linearGradient>
    <linearGradient id="linear-gradient-5" x1="2834.13" y1="-10848.05" x2="2910.93" y2="-10848.05" gradientTransform="translate(-2829.73 10988.46)" xlink:href="#linear-gradient-3"/>
    <linearGradient id="linear-gradient-6" x1="9567.74" y1="-10062.38" x2="9486.54" y2="-10062.38" gradientTransform="translate(9690.93 -9949.93) rotate(-180)" xlink:href="#linear-gradient"/>
    <linearGradient id="linear-gradient-7" x1="9556.86" y1="-10057.09" x2="9505.64" y2="-9968.38" gradientTransform="translate(9690.93 -9949.93) rotate(-180)" gradientUnits="userSpaceOnUse">
      <stop offset="0" stop-color="#800020"/>
      <stop offset=".59" stop-color="#95142e"/>
      <stop offset="1" stop-color="#9f1d35"/>
    </linearGradient>
    <linearGradient id="linear-gradient-8" x1="1772.74" y1="-13847.28" x2="1853.94" y2="-13847.28" gradientTransform="translate(-13734.44 -1772.76) rotate(90)" xlink:href="#linear-gradient"/>
    <linearGradient id="linear-gradient-9" x1="1801.52" y1="-13823.03" x2="1827.36" y2="-13778.27" gradientTransform="translate(-13734.44 -1772.76) rotate(90)" xlink:href="#linear-gradient-3"/>
  </defs>
  <g id="Layer_1-2" data-name="Layer 1">
    <g>
      <g>
        <g>
          <path class="cls-1" d="M268.54,33.51h17.14V118.95h-17.14V33.51Zm86.33,25.54v59.9h-12l-27.17-41.05v41.05h-12V59.05h12l27.17,41.14V59.05h12Zm65.55,0v59.9h-12l-27.17-41.05v41.05h-12V59.05h12l27.17,41.14V59.05h12Z"/>
          <path class="cls-2" d="M512.26,76.35c0,25.83-17.75,42.6-45.05,42.6h-29.87V33.51h29.87c27.3,0,45.05,16.89,45.05,42.84Zm-45.66,28.03c17.99,0,28.16-10.28,28.16-28.03s-10.16-28.4-28.16-28.4h-12.12v56.43h12.12Z"/>
          <path class="cls-2" d="M526.08,59.13h12v37.02c0,8.23,4.46,12.51,12.08,12.51s12.17-4.29,12.17-12.51V59.13h12.08v36.94c0,15.77-11.31,23.48-24.42,23.48s-23.91-7.71-23.91-23.48V59.13Z"/>
          <polygon class="cls-2" points="677.84 59.05 663.87 59.05 642.36 118.95 654.96 118.95 658.9 107.55 662.16 97.95 670.81 72.93 679.47 97.95 682.73 107.55 686.67 118.95 699.35 118.95 677.84 59.05"/>
        </g>
        <g>
          <path class="cls-2" d="M291.14,149.61h-8.81v20.84h-4.71v-20.84h-8.9v-3.83h22.43v3.83Z"/>
          <path class="cls-2" d="M330.01,145.78v24.68h-4.72v-10.58h-12.29v10.58h-4.71v-24.68h4.71v10.27h12.29v-10.27h4.72Z"/>
          <path class="cls-2" d="M369.32,166.75v3.7h-19.65v-24.68h19.21v3.7h-14.5v6.7h11.33v3.61h-11.33v6.96h14.94Z"/>
          <path class="cls-2" d="M397.17,160.85h-5.51v9.61h-4.67v-24.68h10.93c2.85,0,5.1,.67,6.76,2.01,1.66,1.34,2.49,3.18,2.49,5.53,0,1.76-.47,3.25-1.41,4.47-.94,1.22-2.28,2.08-4.01,2.58l6.83,10.09h-5.24l-6.17-9.61Zm-5.51-3.48h5.9c3.29,0,4.94-1.31,4.94-3.92s-1.65-3.97-4.94-3.97h-5.9v7.89Z"/>
          <path class="cls-2" d="M440.57,164.2h-10.71l-2.42,6.26h-4.71l9.74-24.68h5.6l9.74,24.68h-4.8l-2.42-6.26Zm-1.41-3.61l-2.47-6.43-1.41-4.54h-.09l-1.45,4.54-2.47,6.43h7.89Z"/>
          <path class="cls-2" d="M481.62,147.87c1.66,1.4,2.49,3.33,2.49,5.79s-.83,4.3-2.49,5.68c-1.66,1.38-3.92,2.07-6.76,2.07h-5.73v9.04h-4.71v-24.68h10.44c2.85,0,5.1,.7,6.76,2.09Zm-2.18,5.79c0-2.79-1.65-4.19-4.94-4.19h-5.38v8.33h5.38c3.29,0,4.94-1.38,4.94-4.14Z"/>
          <path class="cls-2" d="M521.3,166.75v3.7h-19.65v-24.68h19.21v3.7h-14.5v6.7h11.33v3.61h-11.33v6.96h14.94Z"/>
          <path class="cls-2" d="M560.3,160.85c0,3.29-.92,5.77-2.75,7.45-1.84,1.68-4.53,2.51-8.09,2.51s-6.25-.84-8.09-2.51c-1.84-1.67-2.75-4.16-2.75-7.45v-15.07h4.71v14.76c0,2.17,.5,3.79,1.5,4.85,1,1.06,2.54,1.59,4.63,1.59s3.63-.53,4.63-1.59c1-1.06,1.5-2.67,1.5-4.85v-14.76h4.71v15.07Z"/>
          <path class="cls-2" d="M599.48,149.61h-8.81v20.84h-4.71v-20.84h-8.9v-3.83h22.43v3.83Z"/>
          <path class="cls-2" d="M621.33,170.45h-4.71v-24.68h4.71v24.68Z"/>
          <path class="cls-2" d="M658.97,168.91c-1.97,1.26-4.41,1.89-7.31,1.89-2.44,0-4.58-.51-6.41-1.54-1.84-1.03-3.25-2.5-4.25-4.41-1-1.91-1.5-4.16-1.5-6.74s.5-4.88,1.5-6.79c1-1.91,2.43-3.37,4.3-4.38,1.87-1.01,4.05-1.52,6.54-1.52,2.7,0,4.98,.6,6.83,1.81s3.08,2.94,3.7,5.2l-4.36,1.63c-.35-1.67-1.04-2.89-2.05-3.66-1.01-.76-2.42-1.14-4.21-1.14-2.29,0-4.12,.78-5.49,2.33-1.37,1.56-2.05,3.73-2.05,6.52s.68,4.97,2.05,6.52c1.37,1.56,3.15,2.34,5.35,2.34,2.03,0,3.59-.39,4.69-1.17,1.1-.78,1.78-1.98,2.05-3.59l4.41,1.37c-.56,2.29-1.82,4.07-3.79,5.33Z"/>
          <path class="cls-2" d="M694.97,146.59c1.67,.78,3.11,1.98,4.32,3.59l-2.95,3.22c-.85-1.5-1.85-2.56-3-3.2-1.15-.63-2.64-.95-4.49-.95s-3.14,.32-4.14,.95c-1,.63-1.5,1.45-1.5,2.45,0,.7,.27,1.28,.82,1.72,.54,.44,1.23,.77,2.07,.99,.84,.22,1.99,.46,3.46,.73,2.09,.38,3.78,.79,5.09,1.21,1.31,.43,2.43,1.13,3.37,2.12,.94,.98,1.41,2.33,1.41,4.03,0,2.26-.96,4.05-2.89,5.38-1.92,1.32-4.47,1.98-7.65,1.98-5.17,0-8.93-1.6-11.28-4.8l2.86-3.35c.82,1.47,1.92,2.56,3.28,3.26,1.37,.71,3.06,1.06,5.09,1.06,1.79,0,3.2-.27,4.23-.82,1.03-.54,1.54-1.34,1.54-2.4,0-1-.51-1.72-1.52-2.16-1.01-.44-2.59-.84-4.74-1.19-2.09-.35-3.79-.74-5.11-1.17-1.32-.42-2.46-1.13-3.42-2.12-.95-.98-1.43-2.34-1.43-4.08,0-1.44,.42-2.74,1.26-3.9,.84-1.16,2.04-2.07,3.61-2.73,1.57-.66,3.4-.99,5.49-.99,2.47,0,4.54,.39,6.21,1.17Z"/>
        </g>
      </g>
      <path class="cls-2" d="M618.97,94.7c9.6-2.57,13.63-9.94,13.63-17.23,0-10.03-7.2-18.34-21.6-18.34h-22.45v9.94h22.02c6.68,0,9.68,3.34,9.68,8.66s-3,8.91-9.68,8.91h-22.02v32.31h12v-23.31h5.66l13.2,23.31h13.88l-14.31-24.25Z"/>
      <path class="cls-2" d="M678.06,109.86l-5.87-5.87h0c-.74-.74-1.93-.74-2.66,0l-5.87,5.87c-.74,.74-.74,1.93,0,2.66l5.87,5.87c.55,.55,1.36,.69,2.04,.41,.02,0,.04-.02,.06-.03,.09-.04,.18-.08,.26-.14,.1-.07,.2-.15,.3-.24l5.87-5.87c.74-.74,.74-1.93,0-2.66Z"/>
    </g>
    <g>
      <path class="cls-7" d="M50.96,177.23v23.71c0,1.86,1.51,3.38,3.38,3.38h23.71c1.86,0,3.38-1.51,3.38-3.38v-4.59c0-11.35,4.51-22.23,12.53-30.25h0c8.02-8.02,18.9-12.53,30.25-12.53h4.59c1.86,0,3.38-1.51,3.38-3.38v-23.71c0-1.86-1.51-3.38-3.38-3.38h-23.71c-1.86,0-3.38,1.51-3.38,3.38v4.59c0,11.35-4.51,22.23-12.53,30.25h0c-8.02,8.02-18.9,12.53-30.25,12.53h-4.59c-1.86,0-3.38,1.51-3.38,3.38Z"/>
      <path class="cls-5" d="M105.08,153.57h5.44c10.8,0,21.16,4.29,28.8,11.93l8,8c6.11,6.11,9.54,14.4,9.54,23.03h0c0,1.86,1.51,3.38,3.38,3.38h14.89c1.86,0,3.38-1.51,3.38-3.38v-14.89c0-1.86-1.51-3.38-3.38-3.38h0c-8.64,0-16.93-3.43-23.04-9.54l-7.99-7.99c-7.64-7.64-11.93-18-11.93-28.8v-5.44c0-1.86-1.51-3.38-3.38-3.38h-23.71c-1.86,0-3.38,1.51-3.38,3.38v23.71c0,1.86,1.51,3.38,3.38,3.38Z"/>
      <path class="cls-6" d="M27.08,51.26H3.38C1.51,51.26,0,52.78,0,54.64v23.71c0,1.86,1.51,3.38,3.38,3.38H7.96c11.35,0,22.23,4.51,30.25,12.53h0c8.02,8.02,12.53,18.9,12.53,30.25v4.59c0,1.86,1.51,3.38,3.38,3.38h23.71c1.86,0,3.38-1.51,3.38-3.38v-23.71c0-1.86-1.51-3.38-3.38-3.38h-4.59c-11.35,0-22.23-4.51-30.25-12.53h0c-8.02-8.02-12.53-18.9-12.53-30.25v-4.59c0-1.86-1.51-3.38-3.38-3.38Z"/>
      <path class="cls-10" d="M50.74,105.39v5.44c0,10.8-4.29,21.16-11.93,28.8l-8,8c-6.11,6.11-14.4,9.54-23.03,9.54h0c-1.86,0-3.38,1.51-3.38,3.38v14.89c0,1.86,1.51,3.38,3.38,3.38h14.89c1.86,0,3.38-1.51,3.38-3.38h0c0-8.64,3.43-16.93,9.54-23.04l7.99-7.99c7.64-7.64,18-11.93,28.8-11.93h5.44c1.86,0,3.38-1.51,3.38-3.38v-23.71c0-1.86-1.51-3.38-3.38-3.38h-23.71c-1.86,0-3.38,1.51-3.38,3.38Z"/>
      <path class="cls-8" d="M177.31,153.05h23.71c1.86,0,3.38-1.51,3.38-3.38v-23.71c0-1.86-1.51-3.38-3.38-3.38h-4.59c-11.35,0-22.23-4.51-30.25-12.53h0c-8.02-8.02-12.53-18.9-12.53-30.25v-4.59c0-1.86-1.51-3.38-3.38-3.38h-23.71c-1.86,0-3.38,1.51-3.38,3.38v23.71c0,1.86,1.51,3.38,3.38,3.38h4.59c11.35,0,22.23,4.51,30.25,12.53h0c8.02,8.02,12.53,18.9,12.53,30.25v4.59c0,1.86,1.51,3.38,3.38,3.38Z"/>
      <path class="cls-9" d="M153.65,98.93v-5.44c0-10.8,4.29-21.16,11.93-28.8l8-8c6.11-6.11,14.4-9.54,23.03-9.54h0c1.86,0,3.38-1.51,3.38-3.38v-14.89c0-1.86-1.51-3.38-3.38-3.38h-14.89c-1.86,0-3.38,1.51-3.38,3.38h0c0,8.64-3.43,16.93-9.54,23.04l-7.99,7.99c-7.64,7.64-18,11.93-28.8,11.93h-5.44c-1.86,0-3.38,1.51-3.38,3.38v23.71c0,1.86,1.51,3.38,3.38,3.38h23.71c1.86,0,3.38-1.51,3.38-3.38Z"/>
      <path class="cls-3" d="M153.44,27.08V3.38C153.44,1.51,151.93,0,150.06,0h-23.71c-1.86,0-3.38,1.51-3.38,3.38V7.96c0,11.35-4.51,22.23-12.53,30.25h0c-8.02,8.02-18.9,12.53-30.25,12.53h-4.59c-1.86,0-3.38,1.51-3.38,3.38v23.71c0,1.86,1.51,3.38,3.38,3.38h23.71c1.86,0,3.38-1.51,3.38-3.38v-4.59c0-11.35,4.51-22.23,12.53-30.25h0c8.02-8.02,18.9-12.53,30.25-12.53h4.59c1.86,0,3.38-1.51,3.38-3.38Z"/>
      <path class="cls-4" d="M99.31,50.74h-5.44c-10.8,0-21.16-4.29-28.8-11.93l-8-8c-6.11-6.11-9.54-14.4-9.54-23.03h0c0-1.86-1.51-3.38-3.38-3.38h-14.89c-1.86,0-3.38,1.51-3.38,3.38v14.89c0,1.86,1.51,3.38,3.38,3.38h0c8.64,0,16.93,3.43,23.04,9.54l7.99,7.99c7.64,7.64,11.93,18,11.93,28.8v5.44c0,1.86,1.51,3.38,3.38,3.38h23.71c1.86,0,3.38-1.51,3.38-3.38v-23.71c0-1.86-1.51-3.38-3.38-3.38Z"/>
    </g>
  </g>
</svg>