<?xml version="1.0" encoding="UTF-8"?>
<svg id="Layer_2" data-name="Layer 2" xmlns="http://www.w3.org/2000/svg" viewBox="0 0 40 40">
  <defs>
    <style>
      .cls-1 {
        fill: #12144c;
      }
    </style>
  </defs>
  <g id="Layer_1-2" data-name="Layer 1">
    <path class="cls-1" d="M39.95,35.53V4.43C39.95,1.98,37.97,0,35.52,0H4.43C1.98,0,0,1.99,0,4.43v7.14l.05,.05v23.95c0,2.45,1.98,4.43,4.43,4.43h31.09c2.45,0,4.43-1.99,4.43-4.44l-.05-.04Zm-27.52-2.3H6.53V15.68c0-.23,.04-.31,.29-.31,1.78,.02,3.58,.02,5.35,.02h.25v17.83Zm.38-22.93c-.14,1.19-.81,2.01-1.94,2.41-.43,.16-.92,.22-1.38,.31v-.05c-1.17-.02-2.17-.4-2.82-1.42-1.01-1.57-.43-3.94,1.67-4.55,1.15-.34,2.26-.27,3.27,.43,.99,.7,1.35,1.71,1.2,2.88Zm21.01,22.81v.13h-5.93v-9.82c0-.79-.13-1.57-.49-2.28-.52-1.06-1.51-1.51-2.66-1.46-.81,.05-1.49,.32-2.05,.9-.61,.61-1.01,1.33-1.01,2.21-.02,1.46-.02,2.91-.02,4.37v6.06h-5.91V15.4h.22c1.82,0,3.63,0,5.45-.02,.22,0,.25,.07,.25,.27v2.23c.2-.27,.36-.49,.54-.7,1.01-1.28,2.34-2,3.97-2.16,1.38-.14,2.71,.04,3.97,.65,1.37,.67,2.3,1.74,2.91,3.13,.52,1.22,.74,2.54,.75,3.87,.02,3.47,0,6.94,0,10.43Z"/>
  </g>
</svg>